<?xml version="1.0" encoding="UTF-8"?>
<!DOCTYPE svg PUBLIC "-//W3C//DTD SVG 1.1//EN" "http://www.w3.org/Graphics/SVG/1.1/DTD/svg11.dtd">
<!-- Creator: CorelDRAW -->
<svg xmlns="http://www.w3.org/2000/svg" xml:space="preserve" width="940mm" height="400mm" version="1.1" style="shape-rendering:geometricPrecision; text-rendering:geometricPrecision; image-rendering:optimizeQuality; fill-rule:evenodd; clip-rule:evenodd"
viewBox="0 0 94000 40000"
 xmlns:xlink="http://www.w3.org/1999/xlink"
 xmlns:xodm="http://www.corel.com/coreldraw/odm/2003">
 <defs>
  <style type="text/css">
   <![CDATA[
    .fil2 {fill:#F6D655}
    .fil1 {fill:#F5CB37}
    .fil4 {fill:#ECF4DC}
    .fil3 {fill:#E9EAF2}
    .fil0 {fill:#4CB752}
   ]]>
  </style>
 </defs>
 <g id="Capa_x0020_1">
  <metadata id="CorelCorpID_0Corel-Layer"/>
  <g id="_1930839900832">
   <path class="fil0" d="M35631.89 19344.15c-164.05,44.76 -568.73,-11.05 -797.27,-176.53 -397.63,-287.87 -500.14,-117.37 -805.9,-267.23 -268.34,-131.56 -325.23,-66.16 -888.08,-185.05 -729.95,-154.22 -2139.76,-428.8 -2757.61,-461.71 -163.5,-8.72 -349.46,13.69 -510.48,-4.61 -336.99,-38.23 -453.39,-131.31 -950.79,-122.28 -236.76,4.31 -326.8,45.73 -389.16,-177.85 86.19,-179.98 323.91,-198.23 499.17,-273.47l1520.74 -797.17c104.29,-60.08 130.5,-126.95 211.72,-174.61 97.64,-57.29 155.08,-37.72 278.53,-107.78 138.46,-78.53 345.96,-220.38 478.64,-294 244.82,-135.82 262.97,-153.26 473.77,-298.86 46.95,-32.4 187.94,-98.56 248.12,-138.21 195.74,-128.92 324.97,-261.4 710.48,-491.41 165.89,-98.96 329.59,-223.73 472.25,-300.39 214.51,-115.28 82.84,-77.26 206.55,-179.72 68.64,-56.89 174.4,-75.85 252.88,-133.49 124.92,-91.71 61.8,-92.32 194.27,-192.04 74.12,-55.82 144.14,-96.74 219.42,-166.9 461.36,-430.02 747.29,-756.82 1065.07,-1252.85 130.04,-203 199.39,-384.24 427.08,-388.45 0,489.74 18.15,646.96 280,1050.67 269.51,415.47 513.57,549.92 648.99,728.02 167.61,220.43 -153.36,734.36 -344.49,866.18 -164.82,113.66 -346.07,132.93 -482.95,203.8l-451.62 235.19c-212.58,98.05 -703.33,454.2 -505.92,729.85 121.22,169.28 74.63,-35.14 164.21,183.27 262.16,639.2 114.48,195.8 376.18,653.96 110.12,192.75 506.63,334.91 441.23,923.92l-254.66 772.94c-75.13,182.31 44.01,13.38 -30.37,236.81zm57341.74 -19075.59l394.74 0c74.77,25.81 155.18,67.18 241.98,128.78 -124.06,460.74 -1306.54,750.48 -1763.43,940.8 -126.34,52.57 -141.55,26.77 -270.93,72.5 -189.71,391.84 -31.44,85.68 -287.61,270.37 -155.04,111.74 -36.3,171.92 -300.64,214.45 -371.42,59.78 -1297.36,548 -1516.38,586.93 -295.97,52.53 -165.17,40.66 -343.93,176.28 -185.25,140.54 -169.03,24.54 -361.48,-24.54 -169.03,237.68 19.37,284.72 -366.45,364.57 -298,61.7 -296.48,103.78 -628.3,101.4 -609.24,-4.36 -546.47,409.38 -865.31,554.48 -266.72,-13.33 -177.39,-144.39 -483.96,-107.22 -226.73,193.81 -72.5,223.32 -469.21,395.59 -319.1,138.56 -368.53,77.82 -684.83,130.7 -1003.27,167.76 -869.07,555.65 -1032.47,648.84 -421.3,56.63 -149.2,-121.27 -697.3,111.02 -294.5,124.82 -297.24,211.57 -669.87,170.1 -747.65,-83.25 -697.35,323.96 -1243.67,491.87 -350.28,107.63 -315.45,187.02 -718.55,182.82 -397.57,-4.16 -413.29,-83.61 -714.74,143.77 -487,367.41 -555.7,562.55 -1268.51,331.62 -35.54,-150.72 37.06,-101.55 -47.81,-247.3l-201.42 -14.76 -11.92 546.98c-57.59,58.2 -352.6,259.73 -447.66,255.32 -193.41,-9.03 -261.5,-145.2 -561.18,-110.27 -482.64,56.28 -670.68,626.43 -718.79,656.64 -455.32,145.61 -656.34,-122.54 -996.27,78.63 -206.29,122.08 -208.73,259.93 -314.73,330.5 -159.4,106.12 -325.64,-2.28 -519.46,80.77 -221.34,94.75 -90.34,205.73 -426.16,206.24 -243.51,0.4 -199.15,-29.56 -404.83,114.78 -487.66,342.16 -411.51,-113.06 -949.17,52.32 -123.95,78.98 -113.46,686.19 -870.73,532.68 -679.76,-137.85 -561.38,306.47 -876.73,518.59 -360.66,30.88 -289.73,-215.42 -606.6,-163.25 -191.74,237.78 9.43,427.84 -438.84,479.4 -126.08,14.55 -268.9,-25.85 -374.56,14.2 -251.51,95.41 -255.06,321.98 -907.14,337.65 -408.98,9.83 -251.66,194.27 -473.82,379.32 -417.29,112.7 -462.26,-106.82 -773.85,-93.03 -202.09,140.33 -148.35,362.34 -363.71,451.16 -119.7,49.38 -446.75,-54.35 -641.53,-38.83 -385,30.67 -643.82,497.04 -1101.16,471.64 -408.88,-22.71 -264.8,-58.56 -555.25,196.05 -230.68,202.28 -367.66,1.67 -593.17,176.58 -229.81,178.25 -126.18,251.31 -516.41,212.53 -363.65,-36.1 -277.52,-168.37 -498.61,-255.07 -153.77,86.9 -794.74,911.45 -1018.37,859.29 -353.93,-212.48 2.08,-485.29 -737.05,-192.25 -595.8,236.2 -307.13,318.03 -549.52,649.79 -203.14,76.36 -354.68,4.06 -603.91,82.9 -118.18,37.36 -384.09,113.51 -478.34,165.52 -13.08,7.2 -740.59,540.7 -743.84,543.99 -391.03,402.19 -257.04,413.24 -883.87,214.36 -484.42,-153.72 -516.36,357.57 -647.87,533.8 -173.94,42.38 -254.3,-36.2 -396.86,67.32 -116.66,84.72 -65.65,177.85 -250.96,223.83 -283.75,70.42 -533.69,-94.7 -834.84,152.76 -527.31,433.26 -983.59,75.33 -1511.51,462.97 -48.16,443.05 -151.84,778.77 -175.47,1026.43 -32.54,340.69 -28.49,751.5 -89.38,1069.58 -44.86,234.48 -96.17,188.7 -144.39,456.59l-245.53 956.31c-65.55,265.81 -120.86,155.8 -301.04,252.28 26.01,260.99 54.65,116.7 12.62,355.34 -53.18,302.31 2.59,140.53 -117.77,404.72 -104.23,228.85 -21.24,210.35 -28.95,402.8 -6.59,165.58 -76.25,192.75 -137.34,330.24 -135.36,304.39 -104.84,521.43 -207.1,823.14 -61.65,181.75 -289.99,476.3 -420.49,564.92 -225.86,-51 -150.42,-114.22 -337.7,-263.22 -447.31,-355.75 -281.37,-634.94 -264.24,-1235.31 10.55,-369.99 -43.9,-765.49 -7.09,-1081.39 27.78,-238.38 -16.53,-315.14 -33.62,-512.1 -32.14,-370.9 113.92,-690.91 61.25,-1045.54 -22.92,-154.33 -59.32,-314.08 -31.18,-464.65 49.23,-263.43 340.89,-761.03 -165.58,-600.32 -447.26,141.96 -653.25,42.49 -939.99,223.99 -385.92,244.26 -153.57,-58.15 -651.78,461 -330.35,-38.43 -293.34,15.05 -599.1,50.14 -284.11,32.59 -370.95,0.2 -568.93,-150.53 -177.49,-135.11 -374.3,-131.81 -541.96,-18.3 -62.71,42.49 -13.89,14.91 -68.95,59.93l-46.85 39.03c-145.25,105.2 -221.04,109.92 -397.97,122.54l-95.57 199.5c-527.87,51.3 -353.87,207 -578.46,537.55 -64.04,94.3 -206.24,181.09 -269.21,289.33 -40.2,69.05 -53.84,145.2 -67.13,230.07 -4.96,31.84 -8.66,73.97 -10.64,88.06 -62.21,440.87 -1120.68,-58.91 -1153.48,-49.38 -150.48,84.57 -92.83,222.67 -372.18,278.44 -173.59,34.62 -287.1,-76.86 -541.76,-79.09 -248.82,-2.23 -385.5,18.1 -611.21,40.66 -186.42,18.65 -331.62,-40.61 -548.86,-39.5 -284.67,1.47 -315.54,53.95 -548.55,-98.71 -186.87,-122.48 -17.09,-50.19 -191.03,-56.37 -579.83,-20.48 -2224.38,-18.91 -2597.97,-70.07 -226.87,-31.12 -397.47,-13.79 -607.41,-38.63 -375.93,-44.46 -143.78,-56.53 -464.4,66.47 -147.93,56.73 -843,-129.28 -1671.76,42.03 -105.46,21.8 -170.75,23.57 -237.98,62.51 -7.96,4.66 -17.44,12.87 -24.89,18.04 -7.41,5.13 -16.07,14.45 -23.07,19.88 -6.95,5.37 -15.82,15.21 -22.31,20.58l-97.03 74.63c20.98,621.2 -82.24,454.91 -242.8,916.21 -80.3,230.78 -133.99,590.23 -335.67,780.35 -231.54,218.15 -124.31,117.31 -279.9,406.9 -206.6,384.54 16.53,432.4 -395.45,634.69 -265.55,130.39 -279.6,479.45 -509.97,649.03 -279.09,205.38 -681.48,831.25 -922.14,207.56 -103.23,-267.63 -73.72,-751.09 -33.31,-1034.24 26.82,-187.94 8.11,-296.94 69.86,-488.27 50.95,-157.98 138.56,-240.77 95.92,-409.54 -66.06,-20.63 -912.72,1.88 -1048.33,2.03 -236.31,0.25 -209.59,-95.26 -503.99,29.96 -227.08,96.53 -1061.21,-226.31 -1351.87,-264.49 -594.73,-78.13 -1902.24,17.59 -2296.46,-64.39 -788.81,-163.95 -1132.75,61.09 -1994.01,-26.76 -226.31,-23.12 -284.26,53.18 -539.32,27.57 -129.99,-13.02 -302.31,-29.3 -439.96,-32.24 -60.58,253.14 -324.67,651.88 -387.13,943.49 -45.53,212.48 -108.34,438.49 -225.96,632.56 -189.26,312.4 -346.83,448.02 -480.62,807.06 -179.06,480.52 -317.16,394.23 -462.72,610.41l-211.66 432.2c-127.05,204.72 -115.59,233.16 -318.08,325.78 -70.02,32.04 -20.33,6.44 -84.47,44.31l-294.4 220.99c-520.41,402.09 -602.8,-463.12 -527.77,-828.5 37.12,-180.79 33.52,-354.43 59.98,-540.95 32.3,-227.23 69.51,-284.47 111.64,-489.34 138.1,-671.14 374.5,-1369.35 374.5,-2029.24 -541.45,125.63 -476.2,349.47 -781.61,463.23 -192.35,71.64 -867.03,151.89 -987.24,214.61 -181.8,94.85 -108.39,220.79 -392.76,251.05 -193.11,20.59 -347.68,4.46 -559.91,41.07 -361.88,62.46 -562.74,244.67 -898.01,303.88 -539.83,95.26 -374.25,314.18 -774.51,470.33 -420.24,163.9 -461.76,-37.67 -864.4,337.44 -397.27,370.05 -501.36,179.02 -888.59,313.27 -157.67,54.7 -213.13,165.17 -351.13,249.84 -183.99,112.95 -290.96,71.94 -459.68,141.24 -173.09,71.08 -173.54,193.01 -378.82,265.05 -219.67,77.11 -208.77,27.48 -429.66,171.31 -273.98,178.41 -536.19,160.71 -872.01,329.84 -171.71,86.44 -658.21,310.07 -831.29,370.6 -416.44,145.61 -1308.88,703.18 -1638.56,808.13 -313.72,99.87 -565.59,166.04 -785.01,416.89 -245.08,280.11 -1123.77,701.25 -1439.52,-185.4 -114.78,-322.44 -151.44,-731.22 -9.23,-1050.11 55.82,-125.23 450.86,-570.81 556.56,-643.97 45.28,-31.28 737.76,-313.31 871,-373.79 332.57,-150.98 469.15,-354.89 775.88,-426.02 296.58,-68.75 203.25,-126.49 411.87,-231.99 147.53,-74.63 309.56,-59.73 474.48,-126.44 537.4,-217.45 1076.32,-587.95 1633.39,-770.36 273.31,-89.53 636.51,-204.11 897.71,-304.19 310.12,-118.78 616.18,-210.65 909.22,-335.62 232.7,-99.22 317.01,-28.14 522.95,-77.92 162.64,-39.34 216.53,-156.91 385.81,-215.17 251.87,-86.59 681.94,-134.95 977.76,-224.13 505.66,-152.45 2571.15,-589.97 3036.86,-611.72 378.16,-17.65 724.63,-67.43 1106.59,-93.29 217.9,-14.8 346.22,-67.17 563.05,-28.95 277.22,48.88 162.39,88.93 426.07,-14.09 31.18,-401.73 -38.33,-242.18 -225.81,-489.19 -155.24,-204.46 -128.32,-211.25 -326.8,-402.89 -143.78,-138.81 -182.36,-275.85 -266.57,-463.13 -75.19,-167.2 -246.65,-315.64 -110.27,-515.85 35.95,-52.73 757.73,-586.78 840.47,-621.71 518.69,-218.97 373.8,-186.87 637.07,-479.3 12.88,-14.3 73.41,-63.98 92.27,-78.78 65.15,-51.11 44.31,-28.6 93.74,-72.25 15.32,-587.89 -125.42,-539.88 -438.18,-978.37 -104.33,-146.31 -471.79,-721.43 -510.12,-870.99 -86.54,-337.8 801.99,-1503.55 988.41,-1722.16 554.99,-650.97 710.07,-875.96 1441.7,-1348.37 420.94,-271.84 1297.46,-834.99 1738.38,-1008.79 285.84,-112.65 233.57,-75.94 487.46,-242.28 262.16,-171.77 715.5,-183.07 1036.83,-336.69 458.71,-219.32 1169.09,-408.62 1657.47,-445.84 1013.35,-77.26 1450.82,-230.11 2396.95,214.96 583.79,274.63 888.84,1055.69 1144.2,1602.97 221.15,473.83 147.13,710.28 147.13,1226.44 218.1,-22.36 100.53,-66.36 198.53,-316.51 150.52,-384.34 799.71,-1032.82 1082.45,-1364.23 194.79,-228.35 435.86,-568.33 765.14,-737.2 170.6,-87.51 139.06,-61.5 280.82,-191.39 172.47,-158.12 416.99,-235.79 627.89,-359.34 397.32,-232.81 820.75,-578.37 1265.37,-709.17 194.68,-57.24 458.72,-211.86 686.45,-300.79 460.04,-179.62 1934.23,-644.83 2304.08,-657.75 923.31,-32.15 401.68,-257.45 1741.73,-23.68 436.71,76.2 352.6,-34.22 760.57,226.72 670.99,429.16 799.15,1036.62 1240.93,1681.5 207.36,302.67 77.52,1211.28 -168.77,1475.36 -116.15,124.47 -165.78,59.12 -281.22,233.82 -68.95,104.39 -98.86,177.65 -182.57,289.64 -478.89,640.88 -495.92,761.79 -1219.94,1226.74 -126.39,81.12 -139.47,156.3 -247.36,224.8 -142.46,90.44 -195.08,37.26 -342.26,172.83 -266.37,245.37 -1342.84,797.27 -1474.3,972.38 -286.04,380.9 -34.27,279.55 -572.28,414.97 -148.44,37.36 -1512.27,667.03 -1671.11,818.52 -149.1,142.2 -69.96,123.4 -283.96,188.19 -228.09,69.05 -423.98,202.28 -518.23,426.11 341.75,81.12 383.73,-42.18 755.6,59.73 390.28,107.02 526.1,-21.4 733.25,36.65 128.87,36.1 132.12,120.56 322.23,152.86 255.62,43.44 573.15,-52.22 805.29,53.18 309.06,140.33 765.95,183.68 1120.58,210.09 748.05,55.77 351.79,50.65 1091.38,239.24 107.17,27.33 259.57,33.77 371.46,57.8 198.38,42.59 451.62,242.84 638.8,130.85 144.28,-300.89 -252.02,-277.67 -93.85,-684.07 173.19,-444.97 856.75,-409.89 1036.98,-857.6 158.38,-393.47 513.72,-779.23 671.5,-1174.27 247.91,-621 665.76,-1201.29 979.89,-1810.17 62.56,-121.27 74.42,-268.91 128.01,-344.14 101.14,-141.91 183.53,-56.58 273.82,-198.33 124.72,-195.85 -9.33,-208.68 324.87,-619.48 241.73,-297.04 512.86,-782.98 727.06,-1118.7 225.25,-353.07 560.88,-715.66 760.52,-1085.25 150.53,-278.63 273.82,-248.57 419.48,-524.82 276.1,-523.66 835.25,-1119.21 1209.15,-1580.92 432.96,-534.66 1301.57,-1514.04 1889.61,-1800.89 337.3,-164.57 347.08,-124.97 689.7,-3.96 481.28,170.04 302.16,218.05 538.51,361.68 152.81,92.88 136.48,0.71 309.82,162.34 110.88,103.37 144.89,120.86 263.68,208.52 305.46,225.4 252.78,237.67 373.49,569.49 185,508.4 -26.46,339.98 27.48,738.11 43.45,320.82 2.18,509.26 -20.99,831.14 -19.62,272.76 -60.13,564.93 -110.01,833.58 -72.81,391.75 -9.23,786.83 -130.86,1157.74 -78.88,240.77 -230.01,860.14 -224.49,1149.12 239.65,-0.1 1336.51,-361.27 1604.55,-498.76 219.97,-112.81 296.78,-15.32 562.49,-124.27 226.42,-92.87 224.09,-143.07 512.35,-177.89 156.61,-18.91 200.26,12.21 288.07,8.51 206.24,-8.72 -2.18,-51.91 235.64,-44.92 700.25,20.64 356.82,-267.17 1002.25,111.59l-214.8 78.18 1.42 261.24c538.31,-12.47 889.9,181.55 1144.91,-314.48 224.24,-436.25 759.05,-147.12 1011.42,-446.44 156.46,-185.61 100.99,-288.63 401.63,-304.39 332.89,-17.49 240.21,47.45 529.44,-140.59 436.77,-283.86 623.08,135.67 1079.16,14.86 556.92,-147.49 141.2,-705.52 739.79,-418.42 255.72,122.69 287,-12.01 397.72,-215.06 141.04,-258.66 266.07,-192.24 534.16,-192.14 490.6,0.2 472.91,-390.58 1036.72,-371.47 719.91,24.44 293.14,-298.2 912.41,-270.32 316.11,14.25 729.65,-251.05 925.29,-476.96 142.46,-164.52 306.52,-149.36 502.98,-234.48 223.88,-96.99 236.55,-180.54 462.72,-52.68 572.84,323.96 215.87,-307.53 872.26,-322.94 322.44,-7.61 244.41,-41.88 478.18,-203.71 220.28,-152.5 367.11,-79.6 610.3,-74.22 373.24,8.21 298.41,-156.71 515.1,-215.67 177.34,-48.27 273.82,111.13 454.96,-16.58 285.84,-201.57 89.13,-146.52 464.75,-193.56 229.46,-28.75 288.77,-139.22 390.58,-330.15 211.66,-397.02 523.96,-303.02 934.56,-429.77 768.43,-237.21 621.31,64.64 1091.18,15.01 210.55,-176.07 29.45,-298.86 202.94,-488.98 366.55,-93.79 764.27,91.1 1258.78,-200.01 292.99,-172.47 371.21,-102.81 568.83,-195.69 193.57,-90.95 149.06,-305.46 289.74,-417.85 172.12,48.41 238.54,274.78 428.96,273.82 207.35,-1.07 277.62,-246.55 401.43,-339.73 206.39,-155.29 525.84,135.06 1035,-248.27 191.63,-144.23 263.57,-168.21 489.69,-237.27 249.63,-76.19 295.11,-212.83 480.56,-259.67 207.97,-52.52 348.81,59.37 560.37,-1.52 236.86,-68.14 172.02,-144.39 475.14,-109.56 709.67,81.57 256.23,-401.02 850.11,-433.11 459.02,-24.74 313.56,-513.22 876.51,-371.77 272.4,68.49 234.13,78.78 456.39,-95.31 234.53,-183.73 261.95,-79.35 498.56,-146.22 207.86,-58.76 282.24,-258.56 461.61,-255.41 168.87,2.94 266.87,153.1 459.68,95.21 269.25,-80.82 123.55,-155.54 520.92,-146.37 265.86,6.14 317.42,-21.75 508.09,-198.68 353.82,-328.32 931.83,-171.36 1536.2,-480.22 221.96,-113.41 399.66,-45.07 609.34,-120.86 185.2,-66.92 215.52,-232.55 451.06,-283.71 221.55,-48.11 421.2,57.24 627.29,28.55 228.85,-31.84 252.78,-208.07 436.61,-266.67 214.81,-68.55 293.04,38.37 558.08,-104.14 535.07,-287.76 708,-52.42 1225.98,-195.95 189.61,-52.52 369.44,-135.36 564.63,-165.42 207.3,-31.89 435.14,-12.88 626.27,-107.64 113.67,-56.37 243.3,-176.58 410.35,-236.15zm-64436.52 15066.44c-0.4,-422.06 212.43,-526.04 260.34,-941.51 18.2,-157.78 90.34,-313.57 144.79,-456.13 142.31,-372.58 99.52,-768.74 278.13,-923.77l813.5 -388.4c221.45,-46.34 250.55,-99.22 345.61,-255.31 376.43,12.06 834.13,-118.84 1111.4,-305.11 188.75,-126.79 208.57,-63.57 429.87,-85.27 330.35,-32.34 1449.2,-262.16 1695.75,-178.66 113.41,326.7 -191.95,467.08 -382.93,633.02 -199.54,173.33 -343.07,346.52 -563.3,509.82 -216.99,160.86 -396.31,306.82 -622.52,450.6 -57.09,36.25 -107.53,81.62 -145.1,112.45l-339.47 218.56c-433.57,361.27 -228.65,112.6 -506.98,308.55 -391.39,275.54 -330.05,183.52 -648.43,424.64l-1080.02 551.14c-57.95,40.25 -86.39,80.56 -141.65,115.9 -149.66,95.71 -457.1,209.63 -648.99,209.48zm13724.11 -3188.09l-51.77 197.26c-172.17,61.8 -448.22,121.02 -600.97,266.06 -4.01,3.76 5.78,56.58 -170.9,172.53l-492.74 279.85c-180.03,94.35 -238.94,55.62 -364.77,107.43 -262.67,108.09 -687.77,564.83 -982.83,462.32 -97.44,-287.31 49.78,-500.65 266.82,-640.77 -70.52,-159.91 -6.49,-414 15.57,-607.87l200.81 -118.54c-96.48,-217.85 -47.5,-588.3 -34.57,-831.24 890.61,-134.91 356.05,-149.15 861.05,-383.73 385.51,-179.12 569.59,-303.03 1012.54,-255.17 121.07,173.04 -31.33,83.2 155.75,195.34 116.8,-265.66 -97.09,-78.22 -90.45,-325.48 347.33,-141.24 633.47,-33.1 967.47,-59.01 15.16,-193.41 -16.63,-184.44 60.84,-368.37l1577.72 -10.75c-16.37,189.2 -78.02,170.55 -184.03,331.21 -157.47,238.53 110.32,88.32 -548.35,481.93 -514.54,307.44 44.56,108.7 -586.07,487.01l-167.05 133.44c-610.51,573.14 -572.48,380.38 -844.07,486.55zm8163.95 1725.3c-107.02,175.87 -66.97,255.82 -340.08,260.89 0.55,-429.11 108.74,-196.5 233.66,-453.14 77.17,-158.53 46.75,-359.14 360.87,-242.03 -40.91,-194.58 -208.37,-258.66 40.05,-472.76 172.58,-148.7 295.93,-81.12 474.03,-219.22 -59.82,-327.3 -206.09,-308.8 79.75,-643.81 147.12,-172.53 228.09,-414 379.57,-564.73 113.62,-113.05 164.42,-92.37 233.37,-195.89 85.42,-128.37 283.55,-825.57 678.29,-647.16l-42.49 -430.13c282.49,-198.98 282.79,-352.45 438.59,-601.68 177.09,56.43 179.37,147.08 260.64,273.52 189.66,-261.81 -92.68,-237.17 23.07,-581.41 91.3,-271.44 232.29,-329.59 489.18,-329.54l-254.96 1762.52c-238.43,1067.4 -17.39,1312.62 -212.37,1633.34 -280.67,461.76 -261.81,295.37 -661.82,540.09 -111.07,67.93 -223.57,111.48 -357.72,157.36 -165.88,56.78 -679.96,375.47 -1044.38,500.9 -244.01,83.95 -174.91,-25.81 -360.01,155.08 -159.69,156.05 -169.43,105.56 -417.24,97.8z"/>
   <path class="fil1" d="M72224.45 19188.61c-527.86,395.95 -160.1,238.99 -438.64,462.72 -343.42,275.85 14.05,189.05 -320.05,581.4 -659.84,774.92 -289.18,533.65 -545.41,785.26 -140.28,137.75 -119.09,150.88 -317.42,154.68 0.15,-375.62 309.92,-1003.56 462.72,-1211.27 103.63,-140.79 74.78,-130.35 147.38,-281.88 246.95,-515.6 412.38,-647.72 482.19,-805.55 133.74,-302.36 187.53,-275.34 322.49,-493.08l254.91 -388.96c143.93,-138.4 10.19,98.66 525.68,-547.39 66.32,-83.14 104.14,-163.85 203.15,-226.11l305.71 -123.55c-0.71,494.51 -245.43,396.2 -361.78,797.18 -74.63,257.19 -77.52,187.27 -155.14,274.12 -120.05,134.45 -202.69,318.84 -300.43,472.2 -181.76,285.23 -227.33,159.6 -265.36,550.23zm5074.67 9.58c0.21,-361.48 302.06,-1036.93 483.1,-1276.78 45.43,-60.18 290,-660.6 454.26,-876.42l286.59 -400.16c250.96,-293.34 21.75,-226.52 243.25,-400.61 219.17,-172.32 33.97,-9.84 181.55,-247.71 88.22,-142.26 152.91,-114.53 246.45,-225.71l414.1 -487.31c228.24,-238.84 286.34,-329.08 566.6,-334.81 -0.56,403.4 -302.47,565.84 -434.94,852.79 -215.26,466.42 -130.45,112.86 -338.21,563.16l-336.28 565.18c-92.88,124 -112.85,137.29 -196.81,275.34 -396.81,652.33 -140.08,312.55 -372.22,486.24 -110.32,82.54 -105.15,180.64 -147.03,282.24 -73,177.39 -125.47,148.09 -214.6,257.54 -75.59,92.73 -247,436.31 -333.69,567.77 -165.38,250.8 -191.03,398.64 -502.12,399.25zm8713.62 -4421.22c-96.78,-209.94 -46.13,-205.03 58.51,-370.1 84.87,-133.89 96.98,-223.17 197.62,-361.02 115.59,-158.43 170.6,-134.35 232.7,-325.33 112.5,-345.91 382.16,-723.16 648.33,-982.78 229.26,-223.63 219.77,-484.77 622.72,-493.29 0.97,509.46 -278.18,674.69 -500.89,1087.32 -129.54,239.95 -145.66,122.08 -242.19,315.8 -274.88,551.69 -122.38,162.69 -441.02,632.1 -120.76,177.9 -363.71,478.18 -575.78,497.3zm-5238.37 -1200.28c-274.99,-10.39 -312.96,-220.84 -666.17,-112.65 -467.74,143.32 -913.48,433.21 -1303.35,758.29 -182.66,152.35 -90.95,24.89 -157.72,271.54 -561.68,150.47 -1146.28,1296.96 -1524.28,1695.04 -216.79,228.29 -371.82,478.69 -539.63,748.15 -172.53,277.11 -227.18,170.49 -584.86,745.76l-739.22 891.88c-114.73,121.98 -29.31,89.99 -131.62,211.77 -76.8,91.41 -217.59,184.19 -324.31,319.55 -287.66,364.92 -366.19,380.13 -447.51,496.84 -121.27,174.15 9.58,42.59 -170.55,172.88 -239.95,173.59 -91.16,274.38 -405.84,280.92 0.51,-414.51 250.96,-744.4 303.48,-1113.03 31.84,-223.32 5.98,-55.51 78.68,-221.75 123.15,-281.47 -55.21,-210.45 222.52,-378.46l-5.38 -350.88c169.54,-132.37 226.67,-211.06 302.97,-424.65 40.16,-112.34 39.95,-166.95 75.34,-268.04 82.94,-237.06 43.8,-19.92 150.62,-235.69 42.9,-86.7 46.65,-185.81 68.45,-274.94 52.57,-214.81 40.4,-87.76 125.98,-260.33 86.85,-175.32 88.47,-370.91 179.68,-540.75 -247.92,-177.9 -391.65,-237.92 -686.91,-354.99 -450.61,-178.71 -392.3,264.8 -823.84,11.26 -437.12,-256.89 -514.49,-8.97 -797.54,86.44 -600.97,202.59 -491.66,319.75 -978.26,610l-1039.01 1107.24c-133.94,129.94 -148.8,210.55 -246.49,311.49 -171.11,176.73 -112.5,22.06 -220.18,294.91 -54.56,138.2 -118.94,227.84 -220.59,337.45 -172.88,186.52 -96.83,118.33 -209.99,305.1 -136.68,225.6 -174.1,7.1 -309.21,248.82 -229.81,411.27 -1578.74,2095 -1907.87,2384.53 -188.95,166.14 -101.85,149.87 -225.1,290 -104.13,118.38 -190.06,94.55 -301.04,256.99 -177.19,259.21 -832.31,1004.12 -1157.08,954.44 -372.53,-196.15 464.95,-1453.46 601.63,-1724.55 64.95,-128.82 189.61,-245.68 292.22,-351.64 185.71,-191.74 131.57,-186.92 257.5,-386.37 177.49,-281.17 383.07,-415.67 557.68,-730.05 261.8,-471.44 962.85,-856.54 167.71,-1264.41 -436.97,-224.13 -342.92,-526.45 -1097.77,-137.8 -47.7,24.54 -40.45,18.46 -81.57,47.2 -111.13,77.72 -165.78,170.15 -298.76,216.33 -289.24,100.44 -245.94,-10.9 -335.57,308.3 -383.38,11.25 -771.12,2.79 -1155.92,3.04 -617.65,0.35 -438.33,20.84 -966.46,-192.55 -220.53,-89.08 -253.89,-41.98 -467.73,-95.11 -224.39,-55.77 -176.23,-89.18 -379.38,104.64 -157.06,149.91 -181.04,133.49 -372.38,186.21 -197.31,54.35 -233.16,121.07 -432.45,168.52 0,345.26 -63.37,585.67 202.49,827.65 248.98,226.62 783.54,300.64 490.7,681.08l-1003.87 1356.93c-141.8,146.57 -165.32,253.59 -267.43,376.48 -365.84,440.36 -534.56,523.41 -941.97,1118.4l-1225.83 1478.4c-174.4,141.45 -223.93,78.38 -339.62,304.24 -77.52,151.34 -14.55,72.96 -151.84,191.54 -168.12,145.15 -37.26,13.59 -146.87,196.51 -103.93,173.43 -232.76,176.43 -374.46,312.6 -176.68,169.74 -231.49,198.84 -438.33,56.43 -47.05,-394.59 127.2,-209.03 65.04,-447.06 -63.52,-243.45 -17.79,-294.5 44.36,-539.42 58.71,-231.29 127.15,-270.02 188.45,-455.48 53.74,-162.48 59.26,-373.29 116.04,-527.81 49.23,-133.95 150.78,-269.56 210.55,-433.32 56.38,-154.42 27.23,-114.42 53.13,-247.35 48.02,-246.3 16.13,-65.61 119.96,-223.43 91.3,-138.66 291.92,-778.06 324.56,-963.21 330.71,-190.37 210.86,-327.51 506.33,-738.42 152.7,-212.37 78.17,-302.56 189.91,-453.95l720.83 -1210.77c77.06,-169.08 159.14,-142.82 291.86,-352 133.85,-210.8 236.66,-152.85 446.7,-197.21 187.43,-307.23 596.31,-406.65 930.06,-486.4 254.55,-60.83 171.61,-102.86 335.52,-184.99 389.76,-195.29 45.63,252.83 560.62,-206.65 266.52,-237.77 394.88,-45.93 713.01,-274.22 441.84,-317.07 833.33,-329.95 1310.7,-620.9 401.17,-244.57 947.14,-292.68 1183.75,-747.85 -148.34,-238.79 -671.6,-297.95 -950.84,-367.26 -415.02,-102.96 -742.78,34.88 -1129.66,132.53 -419.78,105.96 -684.17,-68.55 -1097.86,232.8 -271.34,197.68 -259.73,15.21 -539.38,147.43 -99.06,46.85 -48.36,68.29 -241.88,106.01 -143.07,27.89 -161.83,26.32 -283.5,-30.47 -61.45,-133.59 8.67,-547.89 63.47,-709.21 95.92,-282.44 220.79,-375.62 183.02,-696.29 -343.07,-264.24 -361.12,-221.95 -804.78,-183.02 -732.79,64.39 -747.79,624.45 -994.59,1151.66l-395.95 1235.15c-101.25,180.13 -244.88,116.31 -397.93,160.06l-779.13 336.94c-255.11,122.18 -479.1,201.12 -736.29,336.83 -392.91,207.36 -465.05,7.96 -740.14,375.88 -392.65,44.31 -160.3,-30.67 -750.68,236.61 -135.06,61.14 -167.76,121.06 -296.59,175.51 -126.84,53.59 -246.08,67.08 -374.55,140.59 -237.98,136.17 -425.31,204.46 -653.8,333.44 -316.82,178.91 -344.04,95.06 -631.9,355.34 -434.33,65.45 -161.58,-82.69 -510.74,176.08 -161.32,119.54 -97.08,-15.52 -189.2,156.65l-69.26 247.31c124.98,123.14 344.6,173.13 521.69,160.56 433.06,-30.72 123.24,-72.7 503.23,102.16 395.09,181.8 733.04,-66.17 1134.01,-96.89 131.71,-10.09 515.75,-32.6 611.42,-75.34 223.02,-99.62 37.87,-186.87 464.24,-222.56 440.82,-36.91 190.67,42.69 526.14,-160.61 162.69,-98.61 109.56,-33.06 270.83,-72.3 155.14,-37.72 126.59,-76.14 275.7,-120.2 188.49,155.79 229.71,269.71 24.33,417.95 -215.36,155.44 -316.81,716.16 -506.98,997.33 -127.25,188.14 -143.83,334.26 -264.79,507.85 -190.37,273.26 -93.59,300.53 -204.42,525.33 -149.15,302.57 -128.92,97.64 -240.56,532.02 -179.47,698.22 -417.4,820.4 -533.49,1741.53 -37.77,299.93 -146.62,422.42 -168.58,603.36 -80.66,665.11 120.92,846.66 262.01,1284.48 115.8,359.2 339.27,590.64 651.83,850.51 228.59,190.12 1061.05,176.03 1332.19,68.8 175.11,-69.2 128.37,-191.33 404.42,-325.28 433.46,-210.34 1113.12,-1197.64 1431.71,-1615.95 65.96,-86.64 124.51,-128.92 184.69,-201.57 101.6,-122.64 65.2,-142.87 134.15,-252.22 116.7,-185.2 187.02,-112.3 336.13,-436.51 160.56,-349.26 196.35,-243.51 325.58,-447.06 61.95,-97.59 32.24,-109.81 121.52,-221.8 89.64,-112.45 94.3,-68.5 164.36,-222.01 261.71,-573.34 72.76,87.35 609.8,-935.48l906.84 -1368.14c72.85,-97.18 325.98,-363.65 351.43,-421.19 94.56,-213.49 32.35,-363.46 308.1,-485.79 148.03,67.83 62.1,82.74 154.78,183.22 256.63,-255.52 121.72,-145.35 420.59,-125.07 159.7,10.85 337.65,28.54 502.26,109.56 6.49,3.14 19.98,9.12 28.75,15.61 -19.47,143.22 -80.81,199.09 -172.73,299.37 -178.91,195.09 -444.47,636.41 -560.67,898.78 -292.37,660.03 -433.26,726.45 -430.22,1504.31 1.57,411.26 228.34,1116.52 575.62,1356.22 123.05,84.92 575.78,267.74 698.72,257.19 156.15,-13.38 219.12,-62.91 351.44,-119.29 143.63,-61.14 314.79,-36.71 482.04,-33.06 123.96,-194.37 -5.63,-148.19 223.93,-291.15 283.45,-176.53 1101.37,-1024.46 1293.11,-1282.41 266.21,-358.18 171.61,-330.65 331.91,-440.72 91.16,-62.61 81.12,-72.14 165.53,-134.91 250.35,67.48 330.56,330.2 470.68,516.57 168.02,223.42 351.85,280.81 577.25,410.09 386.22,221.5 379.43,69.61 675.45,-104.74 776.7,-457.35 479.55,-236.25 989.07,-985.42 209.58,-308.14 347.84,-276.71 431.14,-556.1 90.14,-302.21 247.45,-262.67 370.39,-616.9l281.94 -492.53c98.81,-141.5 -81.78,-93.28 142.1,-91.51 109,150.02 12.58,374 53.95,586.93 51.81,266.37 30.67,7.76 133.99,255.27 62.51,149.71 7.45,158.99 81.32,305 5.73,11.3 330.4,432.1 336.43,436.2 409.84,277.83 834.75,-144.79 1126.66,-388.19 104.44,-87.1 7.91,22.36 104.95,-109.71l330.3 -442.34c157.46,-272.56 -22.16,-12.22 190.72,-195.6 240.67,-207.25 -48.92,-202.59 414.56,-358.08l94.65 -278.58c281.63,37.11 300.14,272.45 422.62,504.55 68.44,129.58 79.85,186.72 215.32,256.88 240.46,124.57 79.03,29.81 235.08,233.82 223.23,-54.3 405.89,-3.5 585.67,-26.31 211.71,-26.92 262.97,-149.51 428.8,-253.49 226.98,-142.36 367.31,-298.41 538.51,-491.67l454.21 -618.87c103.37,-204.62 228.9,-224.95 305.66,-424.09 123.75,-320.87 438.53,-492.68 439.19,-977.31 271.14,4.62 245.38,100.89 260.08,340.85 14.25,231.89 51.46,341.14 110.12,533.75 108.9,357.62 319.3,518.08 668.15,620.13 271.08,79.35 203.6,73.26 465.41,55.97 454.25,-30.01 344.9,-60.17 707.39,-240.96 102.86,-51.31 122.74,-37.22 224.64,-118.79l800.52 -744.7c107.53,-104.19 74.07,-114.93 149,-194.43 244.93,-259.78 91.01,101.6 273.92,-369.94 52.12,-134.35 208.58,-249.69 296.94,-346.93 242.85,-267.18 379.27,-652.63 636.47,-908.81l117.61 -182.82c88.07,-165.17 155.8,-327.81 342.88,-322.64 126.03,175.82 6.89,333.54 -64.85,512.86l245.43 76.25c154.07,492.73 428.75,989.68 938.32,1084.68 528.32,98.51 191.79,590.08 890.21,56.48 157.87,-120.66 102.56,-34.62 261.75,-81.62 166.8,-49.28 84.36,-81.68 251.56,-134.76 439.91,-139.67 153.47,-49.58 475.4,-254.35 96.83,-61.55 153.26,-56.27 258.71,-127.61l638.34 -477.67c176.53,-153.52 187.89,-268.96 359.5,-370.25 219.98,-129.84 177.7,-196.86 369.49,-360.16 324.62,-276.46 222.36,5.12 354.78,-417.9 432.1,-211.62 114.63,2.48 371.21,-358.49 133.14,-187.28 195.7,-138 348.5,-387.23l265 15.31c60.23,-359.5 -52.47,-205.63 174.65,-513.92 174.15,-236.36 481.03,-513.78 603.26,-770.36 61.09,-128.27 184.19,-251.41 285.94,-400.87 151.79,-222.82 457.6,-556.21 583.13,-790.43 47.85,-89.28 198.99,-385.46 242.84,-443.97 110.11,-146.87 237.87,-182 324.11,-405.58 162.18,-420.29 423.48,-650.71 491.01,-882.6 107.73,-370 528.43,-559.05 158.03,-947.19 -137.24,-143.83 -293.09,-105.71 -395.04,57.89l-592 790.03c-113.82,147.13 -257.35,233.87 -364.83,364.88 -165.98,202.28 -347.18,553.06 -558.54,815.02 -205.83,255.11 -421.45,543.23 -629.87,786.63 -231.54,270.42 -409.18,465.81 -616.18,757.43 -112.65,158.63 -239.14,194.63 -362.69,324.11 -124.11,130.04 -165.38,260.94 -319.05,410.65 -432.25,421.1 -951.45,1016.5 -1455.84,1334.22 -240.31,151.39 -621.66,378.92 -836.06,537.5 -230.32,170.45 -266.27,101.7 -490.71,191.08 -222.26,88.47 -251.61,252.43 -508.55,134.35 -283.15,-366.85 -21.19,-918.8 145.4,-1273.84 86.85,-185.15 325.28,-16.52 521.84,-27.68 177.64,-10.04 403.96,-195.08 580.69,-277.16 278.08,-129.08 273.92,-120.77 435.24,-380.69 143.99,-232 273.22,-230.73 451.72,-406.75 429.97,-423.99 1170.92,-1463.81 1366.11,-2025.09 169.33,-486.9 467.44,-666.37 46.95,-1190.49 -134.1,-167.1 -195.75,-318.03 -404.93,-410.9 -80.15,-35.59 -569.18,-218.77 -626.02,-221 -282.33,-11.25 -956.41,324.77 -1198.35,498.67 -1447.32,1040.32 -1416.55,1573.46 -2357.3,2664.84 -274.33,318.23 -446.75,614.76 -764.27,952.66 -270.78,288.17 -486.86,633.27 -736.49,937.56 -139.58,170.15 -281.12,216.03 -432.36,426.12 -124.1,172.42 -213.74,340.34 -365.12,493.39 -333.55,337.4 -1365.81,1542.79 -1696.21,1694.84 -81.16,-338.46 -56.47,-595.25 68.85,-918.24 113.16,-291.47 142.06,-565.44 251.01,-822.28 80.76,-190.32 61.85,-232.95 111.33,-403.75 63.52,-219.38 168.37,-162.44 230.88,-327.16 53.69,-141.55 -1.22,-314.33 60.48,-454.61 70.02,-159.19 177.75,-87.15 301.2,-256.78 23.22,-152.5 -12.32,-282.49 22.36,-406.91 35.43,-127.35 122.53,-147.02 186.41,-243.04 107.94,-162.29 27.02,-192.1 96.63,-335.47 77.62,-159.95 123.4,-52.42 226.88,-193.72 62.05,-736.94 169.73,-354.83 325.17,-796.46l421.61 -780.25c106.36,-179.16 36.35,-258.35 155.24,-402.79 116.8,-142.01 154.73,-102.61 283.9,-317.02 302.77,-502.26 454.61,-1069.88 862.02,-1498.83 122.9,-129.33 304.04,-622.52 399.96,-801.89l641.48 -1118.45c140.99,-227.38 31.54,-269.11 93.89,-507.03 337.55,-311.9 245.94,50.64 366.09,-578.26 48.73,-254.86 131.06,-480.32 182.06,-763.06 130.65,-723.97 -103.68,-1110.39 -835.45,-707.95 -748.91,411.92 -1496.51,1690.73 -1879.48,2457.94 -81.11,162.54 -136.17,145.2 -210.19,262.01 -71.99,113.62 -61.6,224.8 -120.26,351.85 -142.86,309.3 -315.14,454.76 -478.18,938.31 -152.7,452.79 -479.45,853.35 -614.61,1316.99 -116.51,399.65 -395.95,889.04 -539.38,1392.27 -55.16,193.61 -148.75,355.03 -180.99,548.45l-44.21 216.78z"/>
   <path class="fil0" d="M15101.78 13188.8c20.08,-222.72 249.59,-316.61 378.97,-500.39 -678.74,-682.85 -804.78,-57.59 -1267.09,-414.2 -257.7,-198.74 -1170.42,-217.55 -1516.99,-198.03 -393.37,22.16 -434.28,-196.45 -626.63,-180.13 -134.5,11.41 -173.69,52.32 -355.44,52.02 -503.18,-0.81 -1570.93,64.84 -1978.9,204.87 -776.54,266.57 -710.78,197.67 -1424.1,340.89 -511.45,102.67 -969.25,198.48 -1474,328.88 -304.8,78.68 -398.59,106.26 -687.72,213.64 -303.58,112.75 -524.77,72.6 -757.48,143.93 -210.14,64.39 -409.54,200.56 -655.32,246.09 -274.28,50.8 -486.45,129.08 -733.55,167.86 -529.94,83.25 -1794.4,427.49 -2278.06,350.88 -693.2,-109.76 -1556.43,-407.96 -1386.59,958.2 29.45,236.76 240.05,1286.76 392.85,1409.35 625.62,501.81 435.15,323.96 1243.22,189.31 291.01,-48.52 431.29,-101.15 700.6,-200.87 301.9,-111.79 1715.57,-239.5 2193.85,-510.33 215.57,-122.13 504.14,-89.02 741.36,-160.1 405.28,-121.37 -23.32,-154.02 734.46,-166.9 7.81,288.12 -111.23,557.33 -315.09,761.23 -210.19,210.25 29.86,7.51 -191.28,792.72 -48.92,173.69 -85.22,192.95 -114.98,400.16 -34.78,242.28 27.98,253.84 -112.5,445.48 -184.19,251.16 -235.85,469.41 -306.12,767.01l-285.83 787.29c-163.35,344.04 -99.98,524.57 -253.85,819.28 -188.54,361.12 -152.34,466.88 -277.01,796.06 -151.69,400.67 -433.62,1284.08 -591.09,1598.05 -293.54,585.21 -289.54,962.96 -384.04,1204.18 -61.14,156.2 -119.59,205.58 -163.29,394.74 -52.88,229.2 -92.58,761.23 -163.76,909.32 -120.61,250.85 -115.64,17.94 -151.89,363.2 -56.12,534.25 -259.93,689.69 -296.48,1337.87 -35.34,627.49 -162.54,376.68 -211.26,772.79 -39.8,324.01 -79.55,735.47 -33.01,1059.58 263.58,181.76 1209.25,271.29 1540.57,147.69 115.84,-43.2 85.17,-54.65 200.51,-103.73 109.71,-46.69 102.51,-4.61 211.31,-78.18 -27.03,-216.68 -132.12,-187.27 -38.99,-426.72 65.25,-167.91 163.2,-205.63 213.69,-393.16 112.2,-416.59 181.04,-499.08 339.22,-862.73 97.75,-224.85 176.53,-641.59 285.33,-916.52 68.04,-171.97 166.69,-229.16 214,-386.98 63.62,-212.17 31.23,-231.84 143.88,-457.09 119.64,-239.2 59.72,-229.16 105.4,-452.63 42.03,-205.64 151.23,-195.24 214.55,-386.37 57.54,-173.59 22.41,-307.13 105.2,-495.73 70.06,-159.65 173.95,-213.49 222.21,-378.71 69.51,-237.93 -31.33,-249.89 156.15,-444.83 172.17,-178.96 144.84,-464.39 321.63,-880.27 71.68,-168.67 45.07,-285.22 130.09,-470.78 58.2,-127 147.12,-235.44 189.25,-368.83 48.07,-152.29 63.63,-318.28 116.76,-484.11l300.59 -901.31c70.62,-133.79 361.78,-710.53 378.77,-823.13 33.1,-219.53 -66.98,-345.82 62.86,-538.06 141.09,-208.83 133.08,-105.51 202.74,-398.24 148.19,-622.92 266.93,-582.47 387.79,-1414.98l783.49 -2223.46c233.92,-55.97 151.94,7.35 321.12,22.86 95.72,8.78 92.17,-60.58 217.44,-122.08 201.78,-99.01 481.43,-80.25 704.3,-115.13 287.91,-45.02 397.32,-128.52 633.17,-182.36 218.76,-49.99 500.74,-77.82 734.76,-123.76 266.42,-52.27 292.53,-144.23 622.17,-193.41 203.91,-30.37 545.46,-58.81 707.69,-150.77 172.07,-97.6 1190.29,-286.5 1365.3,-222.87 -83.75,357.62 -707.19,533.95 -1133.71,797.83 -127.66,79.04 -138.86,148.7 -242.59,229.61 -82.33,64.19 -439.55,216.33 -911.75,590.58 -549.72,435.65 -586.17,201.02 -984.81,951.2 -178.1,335.22 251.01,1090.16 393.01,1427 98.56,233.97 302.72,426.67 204.11,615.77 -93.89,180.08 -287.76,399.15 -400.11,596.52 -379.27,666.22 -1223.7,1934.08 -1334.06,2619.92 -64.34,399.6 130.59,419.02 209.07,750.63 85.38,360.72 69.41,377.5 347.34,639.97 381.25,360.1 793.72,671.14 1151.09,96.07 176.33,-283.71 280.77,-51.76 619.64,-279.04 366.49,-245.74 817.86,-475.6 1118.44,-814.97 490.71,-553.93 -124.26,-739.03 731.02,-1071.41 377.29,-146.61 276.76,-10.34 711.9,-275.44 322.49,-196.45 998.24,-300.79 1406.46,-525.08 216.33,-118.83 476.97,-53.53 777.97,-209.28 463.02,-239.6 1935.65,-477.42 2449.17,-512.61 337.95,-23.17 583.89,-120 855.58,-131.71 288.92,-12.47 514.33,-64.08 689.84,-304.59 -223.32,-671.04 -301.19,-1055.49 -1144.86,-1217.47 -146.52,-28.08 -313.31,-91 -452.78,-105.24 -305.05,-31.13 -230.78,30.21 -521.74,-79.25 -594.94,-223.73 -1431.81,90.85 -2043.38,208.17l-961.74 240.16c-290.35,52.16 -227.38,90.14 -426.83,174.09 -172.78,72.76 -353.72,26.16 -543.73,57.24 -214.86,35.14 -501.25,332.33 -863.04,338.82 5.07,-263.28 111.49,-230.88 264.95,-421.86 95.52,-118.84 197.52,-302.77 292.58,-437.12 49.89,-70.52 89.13,-133.39 142.66,-200.71 30.27,-38.08 44.72,-53.08 76.05,-95.67 5.38,-7.3 12.32,-17.95 17.59,-25.3l71.79 -99.98c182.87,-255.51 41.57,-181.85 325.23,-404.46 55.36,-470.13 -189.15,-491.01 -160.66,-718.65 68.09,-247.35 481.78,-375.47 715.09,-443.86 218.21,-63.98 185.76,-87.66 347.18,-210.85 166.29,-126.95 249.69,-102.41 428.66,-172.27 293.03,-114.43 490.8,-239.65 732.43,-426.58 154.32,-119.34 656.13,-203.3 859.03,-299.88 132.62,-63.12 189.66,-166.69 343.42,-214.6 201.68,-62.82 253.85,-6.14 477.83,-123.15 537.25,-280.56 1244.49,-279.85 1790.1,-528.12 213.03,-96.93 743.49,-231.59 937.15,-83.55 6.49,192.96 -185.81,140.84 -257.75,463.58 -83.75,375.98 -180.89,144.95 -298.56,473.32 -147.43,411.36 -262.21,138.71 -388.24,384.39 -120.92,235.65 -6.44,229.36 -255.87,516.77l-1244.95 1072.62c-187.48,145.65 -344.34,155.74 -361.83,436.4 109.97,135.37 176.13,61.55 337.3,232.56 91.35,96.83 169.33,-80.36 327.71,-158.74 1135.53,-562.09 786.38,-747.69 1164.33,-931.07 170.5,-82.69 350.78,-85.37 514.23,-172.52 195.39,-104.19 158.84,-167.51 421.05,-265.71 215.77,-80.76 273.21,-162.49 463.12,-263.48 575.83,-306.27 574.82,184.69 796.77,-410.25 81.07,-217.24 181.5,-212.17 320.01,-364.82 114.47,-126.09 188.65,-309.51 268.14,-459.93 341.71,-646.5 147.38,-423.18 -24.23,-1010.62 -183.33,-627.49 86.79,-392.6 -362.9,-1053.96 -202.69,-298.1 -394.02,-494.66 -754.99,-618.56 -225.15,-77.32 -986.79,-197.78 -1218.23,-152 -826.53,163.5 -1460.56,199.2 -2280.14,510.99 -361.12,137.39 -684.22,154.58 -1028.21,345.35 -233.56,129.54 -242.79,124.01 -499.78,186.98 -261.45,64.08 -251.92,173.84 -478.94,250.8 -217.45,73.72 -1262.84,518.64 -1451.74,651.52 -245.94,173.03 -237.27,177.34 -551.8,177.95z"/>
   <path class="fil1" d="M60687.41 28941.99c-294.2,142.82 -135.52,444.32 -97.49,656.54 57.34,320.67 -64.19,488.07 122.33,820.95 159.9,285.33 163.86,359.5 223.68,677.74 61.3,325.58 182.36,311.13 237.98,706.32 66.97,475.6 213.03,366.8 298.86,602.6 48.01,131.96 13.49,233.16 76.2,395.95l876.17 2386.1c89.73,288.98 73.61,425.46 230.62,713.73 81.62,149.81 67.58,164.11 113.97,315.24 55.36,180.28 92.98,158.73 169.33,302.87l502.62 1343.14c90.04,145.76 123.1,71.69 191.94,280.16 56.28,170.34 58.21,178 132.17,339.98 66.32,145.15 39.65,208.98 135.22,336.99 80.55,107.88 130.8,115.64 214.5,257.75 93.89,159.24 257.24,496.68 496.48,404.97 486.65,-186.52 -336.28,-1841.3 -399.39,-2047.44 -71.54,-233.61 -369.39,-1242.3 -470.94,-1374.78 -143.63,-187.32 -71.74,-154.62 -113.26,-358.89 -34.32,-168.72 -93.54,-162.69 -136.93,-335.21 -36.61,-145.35 -19.98,-241.73 -79.9,-392.3 -44.47,-111.79 -116.46,-194.53 -159.35,-312.86 -84,-231.94 -105.45,-489.08 -224.99,-719.3 -138.71,-267.18 -97.04,-381.05 -251.42,-650l-471.34 -1374.38c-43.04,-164.56 -103.32,-170.95 -157.82,-314.37 -46.18,-121.63 -48.57,-235.24 -102.56,-369.64l-539.48 -1306.24c-107.28,-394.43 -61.49,-294.86 -341.5,-603.1 -170.35,-187.43 -236.86,-498.46 -475.7,-382.52z"/>
   <path class="fil1" d="M55364.78 26409.47c-405.23,103.68 -165.07,132.88 -686,156 -164.66,7.3 -137.19,54.45 -272.6,129.79 -128.77,71.64 -233.41,70.37 -377.45,95.06l-1311.71 491.16c-437.62,157.21 -926.3,248.83 -1353.38,449.44l-4001.24 1407.27c-239.6,112.86 -537.25,69.87 -669.77,231.59 -275.29,336.03 -237.42,39.65 -604.22,297.19 -224.14,157.32 -311.69,152.91 -527.92,378.06 -267.28,278.33 57.8,376.33 310.48,354.88 461.65,-39.18 2558.02,-509.66 2878.68,-732.99 280.21,-195.13 378.71,-70.97 684.88,-216.53 233.72,-111.13 389.16,-94.3 662.98,-238.43 218.35,-114.88 450.4,-117.72 698.01,-203.4 462.36,-160.11 1566.31,-621.66 1972.1,-732.13 120.46,-32.8 243.86,-46.19 353.01,-76.2 181.6,-49.94 160.51,-105.6 300.28,-171.97 120.77,-57.34 218.21,-44.61 342.62,-86.59 123.4,-41.62 187.48,-113.72 307.79,-164.36 103.58,-43.6 219.07,-59.27 320.56,-108.7 179.42,-87.3 136.23,-152.91 249.18,-222.97 221.66,-137.44 -32.95,117.77 627.29,-274.12 978.42,-580.75 268.35,-806.05 96.43,-762.05z"/>
   <path class="fil2" d="M60056.63 31702.35c-383.43,148.19 -270.58,774.26 -270.63,1145.77 -0.05,459.02 22,941.41 77.82,1381.57 53.79,424.09 153.01,815.38 181.2,1235.31 19.87,296.28 -9.89,1098.73 451.51,976.85 395.9,-104.59 249.59,-934.57 236.36,-1106.69 -35.29,-459.47 -38.48,-907.95 -96.43,-1363.01 -25.45,-200.01 -20.79,-447.31 -58.91,-627.85 -36.71,-173.54 -133.24,-413.64 -146.92,-582.82 -18.1,-223.53 52.37,-470.12 -58.56,-671.14 -61.5,-111.44 -217.19,-334.56 -315.44,-387.99z"/>
   <path class="fil2" d="M49481.02 25894.38c217.09,311.34 698.97,172.32 1037.03,132.48 405.78,-47.81 807.06,-68.65 1210.77,-119.9 432.5,-54.91 785.92,-74.99 1232.42,-98.21 98.91,-5.17 538.51,-51.86 609.44,-77.36 226.82,-81.52 219.67,-207 281.27,-384.7 -294.4,-204.41 -1970.02,-95.92 -2436.19,-96.17 -578.01,-0.36 -591.6,12.27 -1115.26,172.47 -373.34,114.22 -568.32,110.52 -819.48,471.39z"/>
   <path class="fil2" d="M65666.61 29242.48c-453.59,188.9 -102.86,480.82 92.12,723.46 523.76,651.77 666.88,568.78 1029.27,816.44l826.79 418.56c699.48,106.62 1108.31,-333.79 414.61,-715.65 -8.42,-4.61 -19.98,-9.84 -28.09,-14.8 -160.66,-97.19 -58.2,-115.8 -325.53,-189.56 -232.61,-64.14 -976.45,-510.03 -1207.68,-681.03 -103.42,-76.5 -384.7,-531.01 -801.49,-357.42z"/>
   <path class="fil2" d="M51197.45 23107.97c296.23,509.51 1006.31,517.37 1524.14,665 731.57,208.53 582.31,93.09 958.7,157.32 324.62,55.41 593.52,219.42 826.02,-139.22 -94.65,-345.86 -437.17,-405.63 -679.91,-436.1 -246.65,-30.98 -740.4,-218.2 -918.04,-240.97 -187.94,-24.03 -334.05,3.96 -526.65,-31.33 -389.21,-71.28 -784.86,-573.85 -1184.26,25.3z"/>
   <path class="fil2" d="M63692.08 29800.46c-168.01,168.07 120.51,574.46 266.16,806.96 156.41,249.64 282.75,473.67 445.64,713.32 75.08,110.47 161.12,225.3 237.16,320.87 92.53,116.35 603.62,1097.26 930.52,770.31 241.37,-241.33 -188.55,-619.94 -292.58,-764.38l-1169.5 -1749.38c-96.08,-93.24 -324.88,-190.17 -417.4,-97.7z"/>
   <path class="fil2" d="M52971.22 30090.71c391.75,41.37 783.69,-259.27 1040.63,-484.22 30.88,-27.02 531.37,-337.5 570.1,-417.14 43.04,-399.15 -136.02,-440.82 -458.26,-499.33 -149.76,192.45 -178,188.3 -396.36,288.58 -202.33,92.93 -184.59,190.62 -397.82,288.97 -266.98,123.1 -622.88,448.02 -358.29,823.14z"/>
   <path class="fil3" d="M78801.46 16880.28c175.31,-88.07 196.5,-91.57 214.6,-300.49 -145.4,73.97 -199.29,130.7 -214.6,300.49z"/>
   <path class="fil3" d="M78325.61 17313.19l210.14 84.86 -110.78 -271.79c-118.58,105.71 -88.92,18.86 -99.36,186.93z"/>
   <path class="fil3" d="M86699.55 13840.02c97.03,-81.12 112.14,-125.48 100.53,-236.71 -146.36,-4.31 -178.66,100.38 -100.53,236.71z"/>
   <path class="fil3" d="M77782.33 18421.85c122.99,-149.71 63.98,-47.2 156.96,-242.79 -174.15,-0.97 -173.34,60.73 -156.96,242.79z"/>
   <path class="fil3" d="M78801.46 16880.28c-236.31,-26.47 -26.52,15.76 -203.61,-125.13 -4.36,169.13 4.67,120.36 132.48,246.55l71.13 -121.42z"/>
   <path class="fil4" d="M15924.71 15928.57c166.34,-1.72 155.24,9.38 156.96,-156.96 -112.55,20.84 -155.99,16.73 -156.96,156.96z"/>
   <path class="fil4" d="M71901.66 22070.43c131.66,-94.45 144.69,-91.66 78.53,-214.6 -122.84,57.09 -103.98,-6.39 -78.53,214.6z"/>
   <path class="fil3" d="M61402.4 19448.38c95.32,-128.67 95.32,-71.28 0,-199.9 -90.14,82.13 -137.69,92.88 0,199.9z"/>
   <path class="fil3" d="M79187.78 16329.59c91.1,-158.58 73,-139.92 -74.83,-218.3 -3.2,143.63 -12.78,107.38 74.83,218.3z"/>
   <path class="fil3" d="M78114.65 17917.81c69,-120.26 69,-151.99 0,-272.25 -67.02,122.54 -69.86,150.47 0,272.25z"/>
   <path class="fil3" d="M3254.67 16365.18c113.62,72.4 102.56,68.65 221.96,0 -119.4,-68.69 -108.34,-72.39 -221.96,0z"/>
   <path class="fil3" d="M12615.86 13972.44c144.03,71.48 88.21,38.68 175.36,-11 -58.66,-32.85 -60.03,-107.94 -175.36,11z"/>
   <path class="fil3" d="M79531.15 15678.38c-129.83,93.03 -107.07,64.79 -42.89,179.06 61.65,-103.98 39.09,-4.46 42.89,-179.06z"/>
   <path class="fil4" d="M78629.74 20064.01c81.02,-137.09 64.39,-27.83 0,-143.48 -49.68,88.32 -104.64,18.86 0,143.48z"/>
   <path class="fil4" d="M41414.41 11300.1c158.63,75.08 40.15,51.91 136.12,0 -143.88,-84.97 -32.75,-63.98 -136.12,0z"/>
   <path class="fil3" d="M6473.99 23233.04c0,51.16 91.92,93.89 66.17,0 -24.54,-89.53 -66.17,-78.07 -66.17,0z"/>
   <path class="fil3" d="M40126.68 16150.58c39.29,25.09 -18.51,81.88 121.37,14.7 -142.06,-109.05 -60.79,-49.58 -121.37,-14.7z"/>
   <path class="fil3" d="M12612.16 22546.29c68.84,42.33 -16.33,91 121.42,-14.71 -136.68,-65.65 -74.68,-14.6 -121.42,14.71z"/>
   <path class="fil4" d="M18406.94 23919.85c2.13,14.14 121.27,96.53 69.66,-3.45 -37.72,-73.11 -82.89,-84.26 -69.66,3.45z"/>
   <path class="fil4" d="M63520.42 22417.51l-131.26 111.28c138.45,-12.77 91.26,34.78 131.26,-111.28z"/>
   <path class="fil4" d="M85809.14 16447.36l119.6 -108.54c-87.41,9.38 -123.96,-17.95 -119.6,108.54z"/>
   <path class="fil4" d="M60133.08 10774c85.83,-11.61 31.94,48.12 121.42,-63.77 -36.55,6.08 -93.89,-22.21 -121.42,63.77z"/>
   <path class="fil4" d="M59700.12 22589.18c-12.37,64.43 63.12,41.16 57.59,-8.62 -7.2,-64.59 -40.36,-80.61 -57.59,8.62z"/>
   <path class="fil3" d="M79788.7 15292.06c-12.37,64.38 63.12,41.11 57.59,-8.62 -7.2,-64.59 -40.35,-80.61 -57.59,8.62z"/>
   <path class="fil4" d="M16529.34 20181.78l118.02 -63.98c-257.7,-13.38 -74.02,19.06 -118.02,63.98z"/>
   <path class="fil3" d="M29953.36 17462.95c209.74,12.17 96.73,9.12 117.98,-63.93l-117.98 63.93z"/>
   <path class="fil3" d="M18364.05 14476.53l125.43 -5.83c-169.74,-92.42 -112.4,-2.28 -125.43,5.83z"/>
   <path class="fil3" d="M77642.5 18640.16c-114.93,129.28 -65.3,80.66 -42.94,136.12l42.94 -136.12z"/>
   <path class="fil4" d="M4241.91 16365.18l170.1 -15.1c-192.76,-37.52 -83.76,-39.45 -170.1,15.1z"/>
   <path class="fil4" d="M57253.43 20915.13l170.09 -15.06c-192.7,-37.52 -83.75,-39.44 -170.09,15.06z"/>
   <path class="fil3" d="M39221.57 18737.04l-255.37 35.44c125.48,1.87 165.07,9.27 255.37,-35.44z"/>
   <path class="fil3" d="M31284.23 17051.99c41.53,41.52 135.72,-55.26 49.54,-23.02 -1.02,0.36 -107.79,-35.28 -49.54,23.02z"/>
   <path class="fil4" d="M3383.44 16622.73c41.53,41.52 135.72,-55.21 49.54,-23.02 -1.07,0.36 -107.79,-35.23 -49.54,23.02z"/>
   <path class="fil3" d="M63692.08 21687.77c0,99.72 52.98,6.38 26.51,0 -0.5,-0.11 -26.51,-110.68 -26.51,0z"/>
   <path class="fil3" d="M87257.53 12974.15c0,99.72 52.93,6.38 26.52,0 -0.51,-0.11 -26.52,-110.68 -26.52,0z"/>
   <path class="fil4" d="M16518.29 15721.32c0,99.67 52.92,6.39 26.51,0 -0.56,-0.15 -26.51,-110.68 -26.51,0z"/>
   <polygon class="fil3" points="5873.07,16021.81 5912.31,16010.75 5887.57,15979.07 "/>
   <polygon class="fil3" points="79745.81,15420.83 79706.57,15431.88 79731.26,15463.57 "/>
   <polygon class="fil3" points="5873.07,16021.81 5833.83,16032.81 5858.52,16064.49 "/>
   <polygon class="fil3" points="79745.81,15420.83 79785.05,15409.78 79760.31,15378.14 "/>
   <polygon class="fil3" points="77642.5,18640.16 77681.74,18629.1 77657,18597.47 "/>
   <polygon class="fil3" points="79531.15,15678.38 79570.39,15667.33 79545.7,15635.69 "/>
   <path class="fil4" d="M79745.81 20915.13c4.26,4.31 12.77,-18.81 12.77,-12.78 -0.81,0.86 -17.03,8.52 -12.77,12.78z"/>
   <path class="fil4" d="M43861.09 10570.4l12.78 -12.78c-0.86,0.82 -17.09,8.52 -12.78,12.78z"/>
   <path class="fil3" d="M19866.38 13961.44l12.83 -12.83c-0.86,0.86 -17.09,8.52 -12.83,12.83z"/>
   <path class="fil4" d="M64207.17 21086.84l12.83 -12.77c-0.86,0.81 -17.09,8.51 -12.83,12.77z"/>
   <path class="fil4" d="M18664.48 23061.38l12.83 -12.83c-0.86,0.86 -17.08,8.57 -12.83,12.83z"/>
   <path class="fil4" d="M59270.91 23275.98l12.77 -12.77c-0.81,0.81 -17.03,8.51 -12.77,12.77z"/>
   <path class="fil4" d="M67340.66 24520.77l12.83 -12.78c-0.86,0.87 -17.09,8.52 -12.83,12.78z"/>
   <polygon class="fil4" points="63520.42,22417.51 63565.23,22339.79 "/>
  </g>
 </g>
</svg>
